<?xml version="1.0" standalone="no"?>
<!DOCTYPE svg PUBLIC "-//W3C//DTD SVG 20010904//EN"
 "http://www.w3.org/TR/2001/REC-SVG-20010904/DTD/svg10.dtd">
<svg version="1.0" xmlns="http://www.w3.org/2000/svg"
 width="256.000000pt" height="256.000000pt" viewBox="0 0 256.000000 256.000000"
 preserveAspectRatio="xMidYMid meet">

<g transform="translate(0.000000,256.000000) scale(0.100000,-0.100000)"
fill="#000000" stroke="none">
<path d="M1410 2004 c-6 -14 -10 -51 -10 -82 0 -44 -6 -66 -24 -93 -40 -59
-80 -72 -259 -82 -143 -9 -159 -8 -176 7 -28 25 -33 57 -17 111 14 46 14 47
-5 29 -37 -33 -98 -174 -110 -251 -18 -122 13 -260 82 -359 16 -24 32 -44 33
-44 2 0 -3 23 -11 50 -12 40 -12 57 -3 86 18 55 37 59 219 47 127 -8 165 -13
192 -29 56 -33 76 -73 84 -170 7 -80 21 -114 46 -114 24 0 92 44 147 95 245
226 198 638 -91 803 -52 30 -85 29 -97 -4z"/>
<path d="M1002 1968 c-21 -28 -52 -98 -58 -135 -9 -59 12 -72 105 -66 l73 6
-6 36 c-21 128 -76 205 -114 159z m66 -35 c19 -38 48 -141 41 -147 -2 -2 -34
-6 -71 -9 -50 -3 -70 -1 -79 9 -15 18 -4 75 27 136 31 60 56 64 82 11z"/>
<path d="M942 1398 c-30 -30 -2 -163 44 -213 23 -25 27 -26 47 -12 32 21 55
65 76 148 l19 74 -37 7 c-58 11 -136 9 -149 -4z"/>
<path d="M2213 879 c-39 -11 -83 -62 -83 -95 0 -61 44 -98 137 -118 17 -4 37
-14 44 -23 11 -13 10 -18 -6 -29 -21 -15 -54 -10 -71 12 -7 9 -31 14 -63 14
l-51 0 13 -32 c20 -50 69 -78 134 -78 99 0 153 40 153 113 0 51 -32 81 -106
102 -64 18 -90 37 -80 54 10 16 52 13 66 -4 17 -21 110 -21 110 0 0 27 -54 76
-95 85 -48 11 -60 11 -102 -1z"/>
<path d="M140 711 l0 -171 54 0 53 0 -1 63 -1 62 53 3 52 3 0 -65 0 -66 55 0
55 0 -2 168 -3 167 -52 3 -53 3 0 -61 0 -61 -51 3 -52 3 -1 55 -1 55 -52 3
-53 3 0 -170z"/>
<path d="M556 714 c-31 -91 -56 -167 -56 -170 0 -2 22 -4 49 -4 41 0 51 4 56
20 5 17 15 20 60 20 45 0 55 -3 60 -20 5 -17 15 -20 59 -20 l53 0 -54 158
c-30 86 -56 163 -59 170 -2 7 -23 12 -58 12 l-54 0 -56 -166z m128 2 c9 -30
16 -57 16 -60 0 -3 -16 -6 -35 -6 -19 0 -35 2 -35 4 0 1 4 16 9 32 5 16 12 41
15 57 4 15 8 27 10 27 3 0 12 -24 20 -54z"/>
<path d="M825 863 c4 -10 29 -87 57 -171 l49 -153 56 3 56 3 54 160 c29 88 53
163 53 168 0 4 -23 7 -52 5 l-52 -3 -26 -102 c-14 -56 -28 -105 -32 -108 -3
-3 -18 44 -33 105 l-27 110 -55 0 c-49 0 -54 -2 -48 -17z"/>
<path d="M1200 710 l0 -170 135 0 135 0 0 35 c0 39 6 37 -112 37 -46 0 -48 1
-48 29 l0 29 65 0 65 0 0 40 0 40 -65 0 c-63 0 -65 1 -65 25 0 25 1 25 80 25
l80 0 0 40 0 40 -135 0 -135 0 0 -170z"/>
<path d="M1530 710 l0 -170 130 0 130 0 0 35 0 35 -67 1 c-38 1 -71 1 -75 0
-5 0 -8 60 -8 134 l0 135 -55 0 -55 0 0 -170z"/>
<path d="M1840 710 l0 -170 125 0 125 0 0 38 0 37 -73 0 -72 0 -3 133 -3 132
-49 0 -50 0 0 -170z"/>
</g>
</svg>
